<svg xmlns="http://www.w3.org/2000/svg" xmlns:xlink="http://www.w3.org/1999/xlink" width="500" zoomAndPan="magnify" viewBox="0 0 375 374.999991" height="500" preserveAspectRatio="xMidYMid meet" version="1.0"><defs><clipPath id="49073d14bf"><path d="M 0 125 L 63 125 L 63 187.5 L 0 187.5 Z M 0 125 " clip-rule="nonzero"/></clipPath><clipPath id="e51e79e588"><path d="M 125 0 L 187.5 0 L 187.5 63 L 125 63 Z M 125 0 " clip-rule="nonzero"/></clipPath><clipPath id="95b2787bad"><path d="M 125 125 L 187.5 125 L 187.5 187.5 L 125 187.5 Z M 125 125 " clip-rule="nonzero"/></clipPath><clipPath id="bcb4427a0f"><path d="M 61 187.5 L 125 187.5 L 125 250 L 61 250 Z M 61 187.5 " clip-rule="nonzero"/></clipPath><clipPath id="3451b8643d"><path d="M 186 187.5 L 187.5 187.5 L 187.5 250 L 186 250 Z M 186 187.5 " clip-rule="nonzero"/></clipPath><clipPath id="e1a03f43b8"><path d="M 186 312 L 187.5 312 L 187.5 375 L 186 375 Z M 186 312 " clip-rule="nonzero"/></clipPath><clipPath id="47daf20640"><path d="M 187.5 62 L 250 62 L 250 125 L 187.5 125 Z M 187.5 62 " clip-rule="nonzero"/></clipPath><clipPath id="3a12a946c8"><path d="M 311 62 L 374.25 62 L 374.25 125 L 311 125 Z M 311 62 " clip-rule="nonzero"/></clipPath><clipPath id="77cd685327"><path d="M 249 125 L 312 125 L 312 187.5 L 249 187.5 Z M 249 125 " clip-rule="nonzero"/></clipPath><clipPath id="d2ed70b19b"><path d="M 374 0 L 374.25 0 L 374.25 63 L 374 63 Z M 374 0 " clip-rule="nonzero"/></clipPath><clipPath id="97bcfa8382"><path d="M 374 125 L 374.25 125 L 374.25 187.5 L 374 187.5 Z M 374 125 " clip-rule="nonzero"/></clipPath><clipPath id="e48f41531a"><path d="M 187.5 187.5 L 250 187.5 L 250 250 L 187.5 250 Z M 187.5 187.5 " clip-rule="nonzero"/></clipPath><clipPath id="7dabdcfd0c"><path d="M 187.5 312 L 250 312 L 250 375 L 187.5 375 Z M 187.5 312 " clip-rule="nonzero"/></clipPath><clipPath id="14e207ade6"><path d="M 312 187.5 L 375 187.5 L 375 250 L 312 250 Z M 312 187.5 " clip-rule="nonzero"/></clipPath></defs><path fill="#aabde7" d="M 0 0 L 62.5 0 L 62.5 62.5 L 0 62.5 Z M 0 0 " fill-opacity="1" fill-rule="nonzero"/><path fill="#aabde7" d="M 62.5 62.5 L 125 62.5 L 125 125 L 62.5 125 Z M 62.5 62.5 " fill-opacity="1" fill-rule="nonzero"/><g clip-path="url(#49073d14bf)"><path fill="#aabde7" d="M 0 125 L 62.5 125 L 62.5 187.5 L 0 187.5 Z M 0 125 " fill-opacity="1" fill-rule="nonzero"/></g><g clip-path="url(#e51e79e588)"><path fill="#aabde7" d="M 125 0 L 187.5 0 L 187.5 62.5 L 125 62.5 Z M 125 0 " fill-opacity="1" fill-rule="nonzero"/></g><g clip-path="url(#95b2787bad)"><path fill="#aabde7" d="M 125 125 L 187.5 125 L 187.5 187.5 L 125 187.5 Z M 125 125 " fill-opacity="1" fill-rule="nonzero"/></g><path fill="#aabde7" d="M -0.546875 250 L 61.953125 250 L 61.953125 312.5 L -0.546875 312.5 Z M -0.546875 250 " fill-opacity="1" fill-rule="nonzero"/><g clip-path="url(#bcb4427a0f)"><path fill="#aabde7" d="M 61.953125 187.5 L 124.453125 187.5 L 124.453125 250 L 61.953125 250 Z M 61.953125 187.5 " fill-opacity="1" fill-rule="nonzero"/></g><path fill="#aabde7" d="M 124.453125 250 L 186.953125 250 L 186.953125 312.5 L 124.453125 312.5 Z M 124.453125 250 " fill-opacity="1" fill-rule="nonzero"/><path fill="#aabde7" d="M 61.953125 312.5 L 124.453125 312.5 L 124.453125 375 L 61.953125 375 Z M 61.953125 312.5 " fill-opacity="1" fill-rule="nonzero"/><g clip-path="url(#3451b8643d)"><path fill="#aabde7" d="M 186.953125 187.5 L 249.453125 187.5 L 249.453125 250 L 186.953125 250 Z M 186.953125 187.5 " fill-opacity="1" fill-rule="nonzero"/></g><g clip-path="url(#e1a03f43b8)"><path fill="#aabde7" d="M 186.953125 312.5 L 249.453125 312.5 L 249.453125 375 L 186.953125 375 Z M 186.953125 312.5 " fill-opacity="1" fill-rule="nonzero"/></g><g clip-path="url(#47daf20640)"><path fill="#aabde7" d="M 186.953125 62.5 L 249.453125 62.5 L 249.453125 125 L 186.953125 125 Z M 186.953125 62.5 " fill-opacity="1" fill-rule="nonzero"/></g><path fill="#aabde7" d="M 249.453125 0 L 311.953125 0 L 311.953125 62.5 L 249.453125 62.5 Z M 249.453125 0 " fill-opacity="1" fill-rule="nonzero"/><g clip-path="url(#3a12a946c8)"><path fill="#aabde7" d="M 311.953125 62.5 L 374.453125 62.5 L 374.453125 125 L 311.953125 125 Z M 311.953125 62.5 " fill-opacity="1" fill-rule="nonzero"/></g><g clip-path="url(#77cd685327)"><path fill="#aabde7" d="M 249.453125 125 L 311.953125 125 L 311.953125 187.5 L 249.453125 187.5 Z M 249.453125 125 " fill-opacity="1" fill-rule="nonzero"/></g><g clip-path="url(#d2ed70b19b)"><path fill="#aabde7" d="M 374.453125 0 L 436.953125 0 L 436.953125 62.5 L 374.453125 62.5 Z M 374.453125 0 " fill-opacity="1" fill-rule="nonzero"/></g><g clip-path="url(#97bcfa8382)"><path fill="#aabde7" d="M 374.453125 125 L 436.953125 125 L 436.953125 187.5 L 374.453125 187.5 Z M 374.453125 125 " fill-opacity="1" fill-rule="nonzero"/></g><g clip-path="url(#e48f41531a)"><path fill="#aabde7" d="M 187.5 187.5 L 250 187.5 L 250 250 L 187.5 250 Z M 187.5 187.5 " fill-opacity="1" fill-rule="nonzero"/></g><path fill="#aabde7" d="M 250 250 L 312.5 250 L 312.5 312.5 L 250 312.5 Z M 250 250 " fill-opacity="1" fill-rule="nonzero"/><g clip-path="url(#7dabdcfd0c)"><path fill="#aabde7" d="M 187.5 312.5 L 250 312.5 L 250 375 L 187.5 375 Z M 187.5 312.5 " fill-opacity="1" fill-rule="nonzero"/></g><g clip-path="url(#14e207ade6)"><path fill="#aabde7" d="M 312.5 187.5 L 375 187.5 L 375 250 L 312.5 250 Z M 312.5 187.5 " fill-opacity="1" fill-rule="nonzero"/></g><path fill="#aabde7" d="M 312.5 312.5 L 375 312.5 L 375 375 L 312.5 375 Z M 312.5 312.5 " fill-opacity="1" fill-rule="nonzero"/></svg>